And.... even MORE Biggest Loser! This time, its UK style.  Interestingly, the prize for winning The Biggest Loser in the UK is MUCH smaller. The contestants seem willing enough, nonetheless. :o)

Again, I am not the original creator of this torrent. I just 'dinked' with it a little in order to bring it to the pirate bay. Quality looks fine and dandy, so I hope all of you fans enjoy! 

-=sample media info=-

Format                           : AVI
Format/Info                      : Audio Video Interleave
File size                        : 387 MiB
Duration                         : 46mn 8s
Overall bit rate                 : 1 172 Kbps

Video
ID                               : 0
Format                           : MPEG-4 Visual
Format profile                   : Simple@L3
Format settings, BVOP            : No
Format settings, QPel            : No
Format settings, GMC             : No warppoints
Format settings, Matrix          : Default (H.263)
Codec ID                         : XVID
Codec ID/Hint                    : XviD
Duration                         : 46mn 8s
Bit rate                         : 999 Kbps
Width                            : 640 pixels
Height                           : 480 pixels
Display aspect ratio             : 4:3
Frame rate                       : 25.000 fps
Resolution                       : 8 bits
Colorimetry                      : 4:2:0
Scan type                        : Progressive
Bits/(Pixel*Frame)               : 0.130
Stream size                      : 330 MiB (85%)
Writing library                  : XviD 1.1.2 (UTC 2006-11-01)

Audio
ID                               : 1
Format                           : MPEG Audio
Format version                   : Version 1
Format profile                   : Layer 3
Mode                             : Joint stereo
Format_Settings_ModeExtension    : MS Stereo
Codec ID                         : 55
Codec ID/Hint                    : MP3
Duration                         : 46mn 8s
Bit rate mode                    : Constant
Bit rate                         : 160 Kbps
Channel(s)                       : 2 channels
Sampling rate                    : 48.0 KHz
Video delay                      : 24ms
Stream size                      : 52.8 MiB (14%)
Alignment                        : Split accross interleaves
Interleave, duration             : 24 ms (0.60 video frame)

